<svg width="21" height="22" viewBox="0 0 21 22" fill="none" xmlns="http://www.w3.org/2000/svg">
<g filter="url(#filter0_d_67_24)">
<path d="M16.448 17.2234L16.447 17.2227L9.28042 12.415L9.15405 12.3303H9.00188H5.4C4.56111 12.3303 3.81918 12.0722 3.29797 11.6789C2.77686 11.2855 2.5 10.7801 2.5 10.264V7.69785C2.5 7.18184 2.77686 6.67637 3.29797 6.28305C3.81918 5.88966 4.56111 5.63164 5.4 5.63164H9.00188H9.15405L9.28042 5.54686L16.447 0.739242L16.448 0.738544C16.8057 0.497299 17.3578 0.425655 17.8359 0.585191C18.316 0.749524 18.5 1.05907 18.5 1.28233V16.6796C18.5 16.903 18.3156 17.213 17.8344 17.3772C17.36 17.5391 16.8078 17.466 16.448 17.2234Z" fill="#8DB0F9" stroke="#8DB0F9" stroke-linecap="round"/>
</g>
<defs>
<filter id="filter0_d_67_24" x="0" y="0" width="21" height="21.9637" filterUnits="userSpaceOnUse" color-interpolation-filters="sRGB">
<feFlood flood-opacity="0" result="BackgroundImageFix"/>
<feColorMatrix in="SourceAlpha" type="matrix" values="0 0 0 0 0 0 0 0 0 0 0 0 0 0 0 0 0 0 127 0" result="hardAlpha"/>
<feOffset dy="2"/>
<feGaussianBlur stdDeviation="1"/>
<feComposite in2="hardAlpha" operator="out"/>
<feColorMatrix type="matrix" values="0 0 0 0 0.356863 0 0 0 0 0.356863 0 0 0 0 0.356863 0 0 0 0.66 0"/>
<feBlend mode="normal" in2="BackgroundImageFix" result="effect1_dropShadow_67_24"/>
<feBlend mode="normal" in="SourceGraphic" in2="effect1_dropShadow_67_24" result="shape"/>
</filter>
</defs>
</svg>
