<?xml version="1.0" encoding="UTF-8"?>
<svg width="200px" height="33px" viewBox="0 0 200 33" version="1.1" xmlns="http://www.w3.org/2000/svg" xmlns:xlink="http://www.w3.org/1999/xlink">
    <!-- Generator: Sketch 51.1 (57501) - http://www.bohemiancoding.com/sketch -->
    <title>huckberry</title>
    <desc>Created with Sketch.</desc>
    <defs>
        <polygon id="path-1" points="0.572947376 0.82694738 20.0000003 0.82694738 20.0000003 27.3680004 0.572947376 27.3680004"></polygon>
    </defs>
    <g id="Gates" stroke="none" stroke-width="1" fill="none" fill-rule="evenodd">
        <g id="huckberry">
            <path d="M36.5624216,1.85505266 C37.1718953,3.65294742 37.4834742,5.5382106 37.4834742,7.437158 L37.4834742,11.2761054 L27.8445267,11.2761054 L27.8445267,1.26031581 L20.0792634,1.26031581 L20.2813687,1.85294739 C20.8961056,3.65715795 21.2097898,5.54978955 21.2097898,7.45610537 L21.2097898,26.8329477 L27.8445267,26.8329477 L27.8445267,16.7929476 L37.4834742,16.7929476 L37.4834742,26.8329477 L44.1182111,26.8329477 L44.1182111,1.26031581 L36.3603163,1.26031581 L36.5624216,1.85505266 Z" id="Fill-1" fill="#1d2b39"></path>
            <path d="M75.9430537,10.3585265 C77.9809485,10.3585265 78.9788432,11.4869475 79.2820011,14.0785265 L85.1788433,13.7437897 C84.8756854,11.402737 84.3556854,10.191158 82.968317,8.68694749 C81.1904222,6.7648422 78.805159,5.80273692 75.7262116,5.80273692 C69.3956852,5.80273692 65.1462114,10.1490528 65.1462114,16.6701055 C65.1462114,23.0227372 69.222001,27.2437899 75.3788432,27.2437899 C78.8483169,27.2437899 81.536738,26.0732635 83.3577906,23.7332635 C84.4420012,22.3953687 84.8756854,21.3090529 85.1788433,19.0932634 L79.2820011,18.7595792 C78.8914748,21.1837898 77.7641064,22.3122108 75.7693695,22.3122108 C73.2546326,22.3122108 72.21358,20.5985266 72.21358,16.4606318 C72.21358,12.2816844 73.3851589,10.3585265 75.9430537,10.3585265" id="Fill-3" fill="#1d2b39"></path>
            <path d="M57.5574745,17.8186318 C57.5574745,18.9081055 57.6764219,20.2891582 56.9837903,21.2102108 C56.3458955,22.0565266 55.261685,22.6070529 54.2027376,22.6070529 C52.6090534,22.6070529 51.8964218,21.7575793 51.8964218,19.9386319 L51.8964218,6.19126324 L45.9795796,6.19126324 L45.9827375,19.9386319 C45.9827375,22.8491582 46.2627375,23.8691582 47.1427375,25.1217898 C48.1911586,26.6133688 50.1037902,27.0807372 51.8206323,27.2091583 C54.0795797,27.3775793 56.893264,26.9312635 58.2522113,24.9017898 C58.4722113,25.7228425 58.7395798,26.7102109 58.7785271,26.8354741 L63.6385272,26.8354741 L63.6385272,6.18389482 L57.5585271,6.20705272 L57.5574745,17.8186318 Z" id="Fill-5" fill="#1d2b39"></path>
            <path d="M107.091265,6.19989482 L100.93337,6.19989482 C100.93337,6.19989482 93.183896,15.1746318 92.7491592,15.6756844 L92.7491592,1.26305265 L85.6754749,1.26305265 L85.8828433,1.87357897 C86.4902117,3.66621058 86.7996854,5.54726324 86.8007381,7.43989484 L86.8091591,26.8356846 L92.7491592,26.8356846 L92.7491592,21.5693687 L96.435475,17.4735792 L100.901791,26.8356846 L107.883896,26.8356846 L100.901791,13.2104212 L107.091265,6.19989482 Z" id="Fill-7" fill="#1d2b39"></path>
            <path d="M158.271371,10.075158 L158.271371,6.19831588 L152.493476,6.19831588 L152.504002,26.8351583 L158.618739,26.8351583 L158.618739,18.4341055 C158.618739,14.1341055 160.386108,11.8551581 164.852423,11.8551581 L164.852423,5.77094745 C162.258739,5.77094745 159.177686,7.16252642 158.271371,10.075158" id="Fill-9" fill="#1d2b39"></path>
            <path d="M172.542108,10.075158 L172.542108,6.19831588 L166.764213,6.19831588 L166.774739,26.8351583 L172.889476,26.8351583 L172.889476,18.4341055 C172.889476,14.1341055 174.656845,11.8551581 179.12316,11.8551581 L179.12316,5.77094745 C176.529476,5.77094745 173.449476,7.16252642 172.542108,10.075158" id="Fill-11" fill="#1d2b39"></path>
            <g id="Group-15" transform="translate(180.000003, 5.371263)">
                <mask id="mask-2" fill="white">
                    <use xlink:href="#path-1"></use>
                </mask>
                <g id="Clip-14"></g>
                <path d="M14.8318949,0.82694738 L10.8950528,12.5448423 L6.99610536,0.82694738 L0.572947376,0.82694738 L8.00768432,21.4690529 L6.08663166,27.3680004 L11.0129475,27.3680004 C11.5813686,25.6911583 19.0613687,3.59852637 20.0003161,0.82694738 L14.8318949,0.82694738 Z" id="Fill-13" fill="#1d2b39" mask="url(#mask-2)"></path>
            </g>
            <path d="M122.723475,17.6987371 C122.656107,18.6966318 122.496107,19.8850529 122.079265,20.8861056 C121.576107,22.0955793 120.700317,23.0313687 119.163475,23.0313687 C117.168738,23.0313687 115.910844,21.401895 115.910844,18.6850529 L115.910844,15.2724213 C115.910844,12.3050528 117.168738,10.4240001 119.250844,10.4240001 C122.836107,10.4240001 122.896107,15.1397897 122.723475,17.6987371 M121.20137,5.8113685 C118.964528,5.8113685 117.298212,6.64715799 115.910844,8.82084223 L115.910844,1.26294739 L108.482423,1.26294739 L108.689791,1.87663161 C109.296107,3.66715795 109.606633,5.54610534 109.607686,7.43663168 L109.623475,26.8345267 L114.64137,26.8345267 C114.655054,26.8103162 114.949791,25.7176846 115.190844,24.8208425 C116.66137,26.6555793 118.067686,27.2534741 120.551896,27.2534741 C125.970844,27.2534741 129.180318,23.2408424 129.180318,16.4282108 C129.180318,9.90821067 126.10137,5.8113685 121.20137,5.8113685" id="Fill-16" fill="#1d2b39"></path>
            <path d="M141.17537,9.78284224 C143.473265,9.78284224 144.514318,11.0365265 144.774318,14.0038949 L137.229055,14.0038949 C137.532212,11.1196844 138.790107,9.78284224 141.17537,9.78284224 Z M150.975371,17.5565266 C150.932213,13.920737 150.497476,12.2070528 149.240634,10.1586317 C147.636423,7.48389484 144.426949,5.81231587 140.872213,5.81231587 C134.757476,5.81231587 130.55116,10.2838949 130.55116,16.7207371 C130.55116,23.0323161 134.757476,27.2523162 141.088002,27.2523162 C144.210107,27.2523162 146.509055,26.3754741 148.373265,24.4533688 C149.43116,23.3575793 149.994318,22.4586319 150.636423,20.6944213 L144.956423,20.3291582 C144.409055,22.0302108 143.17537,22.9491582 141.305897,22.9491582 C138.833265,22.9491582 137.184844,21.1933687 137.184844,18.5186318 C137.184844,18.3502108 137.184844,17.8912634 137.229055,17.5565266 L150.975371,17.5565266 Z" id="Fill-18" fill="#1d2b39"></path>
            <path d="M11.814737,10.3256844 L11.2705265,9.65515803 L11.994737,10.1246317 C13.5821055,11.1530528 15.1852634,12.0677896 16.7642108,12.8456844 C17.0810529,11.746737 17.2926318,10.6183159 17.3926318,9.48989487 C12.4494739,5.17410534 9.91473698,1.15831581 9.2389475,0.000421052637 C8.56210538,1.15831581 6.02736851,5.17410534 1.08421054,9.48989487 C1.18421054,10.6183159 1.39578949,11.746737 1.71368423,12.8456844 C3.29157899,12.0677896 4.89473691,11.1530528 6.48210535,10.1246317 L7.20631589,9.65515803 L6.66210536,10.3256844 C4.73157901,12.7035791 2.49157898,14.9467371 0,16.9920002 C0.0484210533,18.1814739 0.216842108,19.3720003 0.503157902,20.5309477 C3.44421057,19.4404213 6.02947377,18.1804213 9.23684224,16.438316 L6.43263167,19.7667371 L6.43263167,20.0077898 C6.43263167,22.3288424 6.0505264,24.6351582 5.30315797,26.8320004 L13.1736844,26.8320004 C12.426316,24.6351582 12.0442107,22.3288424 12.0442107,20.0077898 L12.0442107,17.918316 C13.7031581,18.7656845 15.4642107,19.5625266 17.9747371,20.5309477 C18.2600003,19.3720003 18.4284213,18.1814739 18.4768424,16.9920002 C15.9852634,14.9467371 13.7442107,12.7035791 11.814737,10.3256844" id="Fill-20" fill="#1d2b39"></path>
        </g>
    </g>
</svg>