<svg width="26" height="22" viewBox="0 0 26 22" fill="none" xmlns="http://www.w3.org/2000/svg">
<g filter="url(#filter0_d_61_10)">
<path d="M9.28087 0C9.5465 0 9.77306 0.199219 9.85509 0.464844C10.277 1.82422 11.5231 2.8125 12.9996 2.8125C14.4762 2.8125 15.7223 1.82422 16.1442 0.464844C16.2262 0.199219 16.4527 0 16.7184 0H17.152C17.9254 0 18.6715 0.277344 19.2652 0.785156L23.6051 4.48047C23.8317 4.67188 23.9723 4.95313 23.9957 5.25781C24.0192 5.55859 23.9254 5.85547 23.7262 6.08594L21.8043 8.33594C21.4098 8.79688 20.7301 8.84766 20.2692 8.45703L18.4996 6.94922V15.75C18.4996 16.9922 17.5113 18 16.3004 18H9.69884C8.4879 18 7.49962 16.9922 7.49962 15.75V6.94922L5.73009 8.45703C5.27306 8.84766 4.59337 8.79688 4.19493 8.33594L2.27306 6.08594C2.07384 5.85547 1.98009 5.55859 2.00353 5.25781C2.02696 4.95313 2.16759 4.67188 2.39415 4.48047L6.734 0.785156C7.32775 0.277344 8.07384 0 8.84728 0H9.28087Z" fill="#97BD98"/>
<path d="M9.37735 0.61238L9.37756 0.613044C9.86069 2.16981 11.2919 3.3125 12.9996 3.3125C14.7074 3.3125 16.1385 2.16981 16.6217 0.613044L16.6219 0.61238C16.6355 0.568183 16.6596 0.535909 16.6816 0.517692C16.7021 0.500708 16.7146 0.5 16.7184 0.5H17.152C17.8048 0.5 18.436 0.733854 18.9403 1.16514L18.9411 1.16585L23.2809 4.86116L23.2824 4.86241C23.4024 4.96378 23.4836 5.11916 23.4972 5.29616L23.4972 5.29665C23.5106 5.46808 23.4574 5.6323 23.3479 5.75896L23.346 5.7612L21.4245 8.01081C21.4244 8.01086 21.4244 8.01092 21.4243 8.01097C21.2103 8.26082 20.8455 8.28973 20.5928 8.07587C20.5926 8.07577 20.5925 8.07568 20.5924 8.07558L18.8239 6.56864L17.9996 5.86627V6.94922V15.75C17.9996 16.7264 17.225 17.5 16.3004 17.5H9.69884C8.77427 17.5 7.99962 16.7264 7.99962 15.75V6.94922V5.86627L7.17533 6.56864L5.4058 8.07646L5.40523 8.07694C5.15905 8.28736 4.79391 8.26333 4.57399 8.00987C4.57373 8.00957 4.57346 8.00926 4.5732 8.00896L2.65325 5.7612L2.65325 5.76119L2.65133 5.75896C2.54184 5.6323 2.48866 5.46808 2.50202 5.29666L2.50205 5.29616C2.51567 5.11917 2.59684 4.96378 2.71683 4.86241L2.71683 4.86241L2.7183 4.86116L7.05815 1.16585L7.05898 1.16514C7.56325 0.733854 8.19443 0.5 8.84728 0.5H9.28087C9.28465 0.5 9.29718 0.500708 9.31766 0.517692C9.33963 0.53591 9.3637 0.568183 9.37735 0.61238Z" stroke="#97BD98"/>
</g>
<defs>
<filter id="filter0_d_61_10" x="0" y="0" width="25.9992" height="22" filterUnits="userSpaceOnUse" color-interpolation-filters="sRGB">
<feFlood flood-opacity="0" result="BackgroundImageFix"/>
<feColorMatrix in="SourceAlpha" type="matrix" values="0 0 0 0 0 0 0 0 0 0 0 0 0 0 0 0 0 0 127 0" result="hardAlpha"/>
<feOffset dy="2"/>
<feGaussianBlur stdDeviation="1"/>
<feComposite in2="hardAlpha" operator="out"/>
<feColorMatrix type="matrix" values="0 0 0 0 0.356863 0 0 0 0 0.356863 0 0 0 0 0.356863 0 0 0 0.66 0"/>
<feBlend mode="normal" in2="BackgroundImageFix" result="effect1_dropShadow_61_10"/>
<feBlend mode="normal" in="SourceGraphic" in2="effect1_dropShadow_61_10" result="shape"/>
</filter>
</defs>
</svg>
