<svg width="22" height="21" viewBox="0 0 22 21" fill="none" xmlns="http://www.w3.org/2000/svg">
<g filter="url(#filter0_d_63_14)">
<path d="M14.35 16.7262C14.0167 16.8595 13.7083 16.8179 13.425 16.6012C13.1417 16.3845 13 16.0845 13 15.7012C13 15.5179 13.0543 15.3555 13.163 15.2142C13.271 15.0722 13.4083 14.9679 13.575 14.9012C14.9083 14.3679 15.9793 13.5179 16.788 12.3512C17.596 11.1845 18 9.86786 18 8.40119C18 6.93452 17.596 5.61786 16.788 4.45119C15.9793 3.28452 14.9083 2.43452 13.575 1.90119C13.3917 1.83452 13.25 1.72619 13.15 1.57619C13.05 1.42619 13 1.25952 13 1.07619C13 0.709524 13.1417 0.417857 13.425 0.20119C13.7083 -0.0154762 14.0167 -0.0571429 14.35 0.0761905C16.05 0.759524 17.4167 1.85119 18.45 3.35119C19.4833 4.85119 20 6.53452 20 8.40119C20 10.2679 19.4833 11.9512 18.45 13.4512C17.4167 14.9512 16.05 16.0429 14.35 16.7262ZM3 11.4262C2.71667 11.4262 2.47933 11.3302 2.288 11.1382C2.096 10.9469 2 10.7095 2 10.4262V6.42619C2 6.14286 2.096 5.90519 2.288 5.71319C2.47933 5.52186 2.71667 5.42619 3 5.42619H6L9.3 2.12619C9.61667 1.80952 9.979 1.73852 10.387 1.91319C10.7957 2.08852 11 2.40119 11 2.85119V14.0012C11 14.4512 10.7957 14.7635 10.387 14.9382C9.979 15.1135 9.61667 15.0429 9.3 14.7262L6 11.4262H3ZM13 12.4262V4.37619C13.75 4.72619 14.354 5.26786 14.812 6.00119C15.2707 6.73452 15.5 7.54286 15.5 8.42619C15.5 9.30952 15.2707 10.1095 14.812 10.8262C14.354 11.5429 13.75 12.0762 13 12.4262Z" fill="#8DB0F9" fill-opacity="0.5" shape-rendering="crispEdges"/>
</g>
<defs>
<filter id="filter0_d_63_14" x="0" y="0" width="22" height="20.8024" filterUnits="userSpaceOnUse" color-interpolation-filters="sRGB">
<feFlood flood-opacity="0" result="BackgroundImageFix"/>
<feColorMatrix in="SourceAlpha" type="matrix" values="0 0 0 0 0 0 0 0 0 0 0 0 0 0 0 0 0 0 127 0" result="hardAlpha"/>
<feOffset dy="2"/>
<feGaussianBlur stdDeviation="1"/>
<feComposite in2="hardAlpha" operator="out"/>
<feColorMatrix type="matrix" values="0 0 0 0 0.356863 0 0 0 0 0.356863 0 0 0 0 0.356863 0 0 0 0.66 0"/>
<feBlend mode="normal" in2="BackgroundImageFix" result="effect1_dropShadow_63_14"/>
<feBlend mode="normal" in="SourceGraphic" in2="effect1_dropShadow_63_14" result="shape"/>
</filter>
</defs>
</svg>
